<svg xmlns="http://www.w3.org/2000/svg" width="56" height="64">
	<style>
		path { fill: currentColor; }
		@media ( prefers-color-scheme: dark ) {
			path { fill: #fff; }
		}
		@media ( prefers-contrast: more ) {
			path { fill: Highlight; }
		}
	</style>
	<path d="M29.304 63.719c-.181-2.983-.138-5.975-.193-8.963-1.652-.136-3.417.177-4.974-.415.777-3.18 2.302-6.219 3.404-9.329 1.43-2.144.804-3.533-1.813-2.955-5.018-.12-10.309-.08-14.772-2.741C3.488 35.4-.954 26.656.174 18.314 1.261 8.006 11.063-.638 21.494.037c4.643-.113 9.168 1.501 12.845 4.301.826.869 1.796-.488 2.692-.684 4.21-2.388 9.381-2.42 13.973-1.295 3.195.925 5.821 4.137 4.78 7.561-.332 3.417-3.897 4.85-6.924 4.377-3.64.088-3.61-4.298-5.588-6.233-1.992-.705-6.685-.209-3.533 2.522 1.883 3.44 2.961 7.326 2.632 11.265.13 5.405-3.235 10-4.73 14.979 1.065 1.154 6.09-.838 3.69 1.997-2.452 3.558-5.063 7.014-7.367 10.668 1.493.548 5.853-.49 3.564 2.234-2.558 4.08-4.962 8.287-7.804 12.171-.15.238-.416 0-.42-.181zM27.837 25.62c4.98-1.345 7.598-7.836 4.654-12.174-2.223-3.726-7.366-5.224-11.167-3.031-2.925 1.406-4.74 4.734-4.288 7.956-.016 4.137 4.11 7.797 8.201 7.542.872-.012 1.755-.063 2.6-.293z"/>
</svg>